<svg width="10" height="10" viewBox="0 0 12 10" fill="none" xmlns="http://www.w3.org/2000/svg">
<path d="M3.56833 6.5625C4.47292 7.6 4.78375 8.38208 4.95 9.13792L3.34208 10C3.09417 8.77125 2.37875 7.90208 1.85708 7.38708L1.47625 7.56708C0.705417 7.93625 0 6.96708 0 6.96708L1.21333 6.38625C0.984583 6.0525 0.86375 5.58208 0.864167 5.18458H2.84042C2.85667 5.3075 2.88833 5.4325 2.93667 5.55958L3.65167 5.21792L5.01208 5.87417L3.56833 6.5625ZM10 7.14917C10 8.36042 8.66 9.10958 7.455 8.52833C6.64542 8.1375 6.22458 7.2825 6.41375 6.51292C6.52208 6.07375 6.29042 6.01458 5.93667 5.84375L0.025 2.9925C0.025 2.9925 0.733333 2.025 1.5025 2.39583L1.875 2.57542C2.43125 1.92792 3.16 0.860417 3.33333 0L4.94875 0.860417C4.70458 1.82375 4.08083 2.67833 3.49083 3.35333C4.13042 3.66167 4.84083 4.00417 5.5075 4.32708L5.91833 4.13C6.27208 3.96 6.50417 3.90125 6.39708 3.46167C6.20917 2.69167 6.6325 1.83708 7.44292 1.44875C8.65 0.87 9.98458 1.62375 9.98458 2.83C9.98458 3.48708 9.57375 4.14083 8.89583 4.48C8.21875 4.81875 7.74375 4.555 7.07125 4.88083L6.86083 4.9825L7.09125 5.09458C7.76292 5.42208 8.23833 5.15917 8.915 5.5C9.59125 5.84125 10 6.49375 10 7.14917ZM7.25042 3.40583C7.45417 3.83042 8.03208 3.97833 8.53917 3.73542C9.04625 3.4925 9.29292 2.94917 9.08917 2.52458C8.88583 2.1 8.30792 1.95208 7.80083 2.195C7.29375 2.43792 7.04708 2.98083 7.25042 3.40583ZM5.72708 4.91125C5.72708 4.74167 5.58958 4.60417 5.42042 4.60417C5.25083 4.60417 5.11292 4.74167 5.11292 4.91125C5.11292 5.08083 5.25083 5.21792 5.42042 5.21792C5.58958 5.21792 5.72708 5.08083 5.72708 4.91125ZM8.55625 6.24542C8.05 6.00125 7.47125 6.1475 7.26708 6.57167C7.06208 6.99583 7.30792 7.54 7.81375 7.78375C8.32042 8.02792 8.89833 7.88167 9.10333 7.4575C9.3075 7.03292 9.0625 6.48958 8.55625 6.24542Z" fill="#26756C"/>
</svg>
